<svg width="480" height="480" viewBox="0 0 480 480" fill="none" xmlns="http://www.w3.org/2000/svg">
<g clip-path="url(#clip0_1_7)">
<path d="M134.698 212.844V202.31C121.098 191.613 112.127 181.316 108 163.778C98.909 125.141 111.052 92.4441 148 74C157.29 66.3989 170.372 62.8298 182.222 63.7778L174.667 68.2222C211.059 66.4893 251.379 85.5435 266.222 120L251.778 112.889C251.778 112.889 257.556 127.778 256 143.111C258 154.222 264 155.556 264 155.556C254.222 164.444 243.111 164.667 243.111 164.667C243.111 164.667 241.739 172.888 238.222 190.444C234.705 208.001 212.889 227.778 212.889 227.778C243.111 259.333 238.222 336.889 234.222 374L317.084 371.357V346.778C317.084 346.778 263.333 349.444 251.778 342.889C246 321.889 238.222 227.778 251.778 207.333C283.333 200.579 428.124 198.297 442.694 202.31C457.265 206.323 453.246 333.879 442.694 336.889C432.143 339.899 369.338 346.778 369.338 346.778V371.357H439.111C439.111 371.357 372 478.444 243.111 478.889C116 478.889 51.5555 387.111 51.5555 387.111C54.7026 352.801 42.4556 286.229 80.9367 267.019C80.9367 231.133 98.7601 217.016 134.698 212.844Z" fill="#0C0C0D" stroke="#0C0C0D" stroke-width="3"/>
<path d="M129.314 175.88C129.314 174.877 140.323 170.362 140.323 170.362C152.131 162.471 154.096 149.516 155.336 136.251L160.841 134.245C165.044 138.91 183.069 161.626 199.111 153.778C192.583 145.449 190.577 140.267 188.364 129.73L195.871 126.72C195.871 126.72 199.333 136.222 212.667 148.222C226 160.222 230.4 162.838 230.4 162.838C230.4 162.838 225.111 190.667 222.222 197.111C219.333 203.556 211.884 214.506 207.38 216.513C202.877 218.519 183.86 220.526 183.86 220.526C166.82 216.644 150.337 203.104 142.825 187.418C134.792 186.944 129.314 184.578 129.314 175.88Z" fill="#E0E0E0"/>
<path d="M101.555 285.556C100.27 279.962 108.222 281.556 110.444 285.556C120.444 342 120.222 372 113.556 441.778C110.889 440.889 107.333 438.667 106 437.111C109.111 396.444 113.778 360.444 101.555 285.556Z" fill="#E0E0E0"/>
<path d="M125.311 237.08C113.665 235.134 91.879 236.951 93.7838 254.136C121.59 241.466 154.011 271.564 175.333 283.778C180.961 285.031 180.612 273.562 179.111 271.556C171.78 261.757 135.725 238.82 125.311 237.08Z" fill="#E0E0E0"/>
<path d="M193.869 264.222C198.394 258.97 206 243.1 209.883 243.1C213.765 243.1 217.229 251.026 216.388 253.132C212.202 263.622 206.145 267.883 199.111 276.444C193.909 277.328 192.283 265.533 193.869 264.222Z" fill="#E0E0E0"/>
<path d="M282.748 285.196C284.062 286.305 292.424 285.089 299.879 286.004C301.991 289.228 299.733 293.446 299.733 293.446C299.733 293.446 276.254 296.85 273.017 293.551C269.78 290.252 275.218 251.631 277.013 251.035C278.808 250.439 284.434 249.834 285.614 251.035C286.795 252.236 281.433 284.087 282.748 285.196Z" fill="#E0E0E0"/>
<path d="M332.023 275.846C317.265 280.607 310.842 277.573 307.939 278.71C307.007 280.834 308.34 283.309 309.856 284.702C311.371 286.094 316.66 285.537 319.407 285.044C323.085 284.823 323.166 281.48 323.861 281.113C324.557 280.746 329.523 280.518 331.594 281.167C332.53 281.559 330.014 287.232 327.229 289.362C324.444 291.451 319.868 292.438 315.813 292.438C312.536 292.438 309.175 292.352 306.397 291.272C303.619 290.192 301.897 286.847 300.423 284.184C298.989 281.522 299.027 278.187 299.027 274.705C299.027 271.183 299.753 268.901 301.187 266.238C302.62 263.576 304.25 261.476 306.831 260.042C309.411 258.609 313.163 258.046 316.521 258.046C319.757 258.046 323.453 258.712 325.993 260.105C328.573 261.497 330.526 263.177 331.919 265.758C333.102 267.853 334.2 273.657 332.023 275.846ZM325.426 271.23C326.29 269.972 322.492 265.944 316.289 265.406C311.108 265.666 306.24 270.665 307.445 272.269C312.24 272.858 324.561 272.487 325.426 271.23Z" fill="#E0E0E0"/>
<path d="M342.195 284.23L357.895 283.662L357.611 289.914C357.611 289.914 333.623 292.288 332.426 291.296C331.229 290.304 332.17 286.356 332.653 284.431C333.136 282.506 348.266 266.888 346.661 264.872C345.056 262.857 333.087 265.14 332.487 264.324C331.887 263.507 331.096 258.68 332.535 257.818C333.975 256.957 357.186 257.258 357.186 257.258L357.186 264.201L342.195 284.23Z" fill="#E0E0E0"/>
<path d="M368.134 282.984C369.387 284.589 381.824 281.764 382.719 282.357C383.613 282.95 384.039 287.355 382.911 288.668C381.783 289.98 357.611 289.914 357.611 289.914L357.895 283.662C357.895 283.662 372.583 265.846 370.891 264.462C369.199 263.078 357.186 264.201 357.186 264.201L357.186 257.258C357.186 257.258 381.18 255.501 382.426 257.174C383.671 258.846 382.309 264.318 382.309 264.318C382.309 264.318 366.88 281.38 368.134 282.984Z" fill="#E0E0E0"/>
<path d="M390.126 251.648C388.61 251.648 387.704 251.035 386.68 250.093C385.697 249.11 384.842 248.044 384.842 246.61C384.842 245.176 385.268 243.594 386.251 242.652C387.275 241.669 388.701 241.347 390.217 241.347C391.732 241.347 393.123 241.514 394.106 242.497C395.13 243.439 395.41 245.176 395.41 246.61C395.41 248.044 395.118 248.901 394.094 249.884C393.111 250.826 391.641 251.648 390.126 251.648ZM394.57 256.73C395.824 258.335 396.242 286.436 395.591 287.806C394.939 289.177 385.653 289.971 384.875 288.425C384.098 286.879 384.214 258.361 385.478 257.065C386.742 255.769 393.316 255.126 394.57 256.73Z" fill="#E0E0E0"/>
<path d="M416.196 255.212C420.251 255.212 423.528 256.502 426.026 259.082C428.525 261.622 429.774 265.185 429.774 269.773C429.774 269.773 429.341 284.696 428.689 286.067C428.037 287.438 422.203 287.689 421.367 286.619C420.531 285.549 421.173 270.94 421.173 270.94C421.173 268.237 420.497 266.168 419.145 264.735C417.794 263.26 415.95 262.523 413.616 262.523C411.24 262.523 409.356 263.26 407.963 264.735C406.611 266.168 405.936 268.237 405.936 270.94C405.936 270.94 406.841 286.77 406.306 287.188C405.771 287.606 399.402 288.274 398.508 287.681C397.613 287.088 396.777 258.452 397.487 256.605C398.198 254.758 405.31 254.664 405.762 256.17C406.214 257.677 405.936 259.943 405.936 259.943C407.082 258.468 408.537 257.321 410.298 256.502C412.1 255.642 414.066 255.212 416.196 255.212Z" fill="#E0E0E0"/>
</g>
<defs>
<clipPath id="clip0_1_7">
<rect width="480" height="480" fill="white"/>
</clipPath>
</defs>
</svg>
